<svg xmlns="http://www.w3.org/2000/svg" width="400" height="358">
    <path d="M292.912 30.760 C 291.591 31.034,289.568 31.761,288.415 32.376 C 287.262 32.990,286.085 33.428,285.800 33.348 C 285.514 33.269,280.824 37.581,275.376 42.930 C 269.929 48.279,265.243 52.670,264.963 52.688 C 264.683 52.707,262.533 54.418,260.186 56.491 C 257.839 58.564,255.639 60.261,255.297 60.261 C 254.955 60.261,254.466 60.574,254.211 60.957 C 253.717 61.697,248.116 64.528,246.744 64.731 C 246.295 64.797,245.049 65.177,243.974 65.575 C 242.899 65.974,239.967 66.664,237.459 67.109 C 232.565 67.978,225.798 70.503,223.941 72.153 C 223.314 72.710,222.801 72.965,222.801 72.718 C 222.801 72.472,221.236 73.453,219.322 74.897 C 217.408 76.342,215.604 77.524,215.312 77.524 C 215.020 77.524,213.801 78.272,212.602 79.186 C 211.404 80.100,210.423 80.641,210.423 80.388 C 210.423 80.135,209.910 80.384,209.283 80.940 C 206.492 83.419,188.274 92.513,188.274 91.428 C 188.274 91.218,187.850 91.397,187.333 91.826 C 186.486 92.529,184.097 93.316,177.199 95.164 C 174.391 95.916,160.302 97.621,153.928 97.981 C 143.113 98.591,122.367 103.212,119.381 105.676 C 118.933 106.046,118.567 106.180,118.567 105.975 C 118.567 105.317,107.253 111.388,104.761 113.383 C 103.439 114.443,102.026 115.309,101.622 115.309 C 100.705 115.309,84.039 131.992,84.039 132.909 C 84.039 133.277,82.647 135.404,80.945 137.636 C 77.778 141.789,76.701 143.477,75.029 146.906 C 74.505 147.980,73.710 149.300,73.263 149.837 C 72.494 150.762,66.594 164.689,66.089 166.775 C 65.959 167.313,65.375 169.365,64.792 171.336 C 64.209 173.306,63.453 176.504,63.111 178.442 C 62.770 180.379,62.352 182.188,62.183 182.462 C 60.522 185.150,60.578 220.152,62.248 222.854 C 62.458 223.195,62.756 224.276,62.909 225.255 C 63.427 228.573,67.809 243.131,68.995 245.473 C 69.303 246.082,69.916 247.459,70.358 248.534 C 71.638 251.647,71.438 251.266,76.847 260.912 C 77.651 262.345,78.674 263.958,79.120 264.495 C 79.567 265.033,80.091 265.912,80.286 266.450 C 80.480 266.987,82.650 269.732,85.108 272.550 C 87.566 275.368,89.911 278.254,90.319 278.963 C 91.423 280.882,95.921 285.342,96.753 285.342 C 97.151 285.342,98.337 286.242,99.390 287.342 C 101.898 289.963,110.749 297.281,110.749 296.733 C 110.749 296.499,111.922 297.236,113.355 298.371 C 114.788 299.506,115.961 300.249,115.961 300.022 C 115.961 299.794,116.941 300.356,118.140 301.270 C 119.338 302.184,120.685 302.932,121.134 302.932 C 121.582 302.932,122.727 303.462,123.678 304.109 C 135.774 312.349,171.289 318.360,189.577 315.264 C 191.547 314.930,194.039 314.522,195.114 314.357 C 196.189 314.192,199.414 313.439,202.280 312.684 C 205.147 311.929,207.951 311.212,208.511 311.091 C 212.450 310.239,229.184 302.501,231.433 300.491 C 232.060 299.931,232.573 299.679,232.573 299.932 C 232.573 300.185,233.554 299.644,234.752 298.730 C 235.950 297.816,237.206 297.068,237.542 297.068 C 237.878 297.068,240.708 294.867,243.832 292.176 C 246.956 289.485,249.511 287.497,249.511 287.758 C 249.511 288.019,251.270 286.492,253.420 284.365 C 255.570 282.237,257.329 280.241,257.329 279.929 C 257.329 279.617,258.737 277.782,260.458 275.851 C 263.515 272.421,264.953 270.140,268.233 263.518 C 269.120 261.726,270.271 259.454,270.791 258.469 C 271.310 257.484,271.555 256.678,271.336 256.678 C 271.116 256.678,271.384 255.871,271.931 254.886 C 272.842 253.247,274.645 247.231,274.226 247.231 C 274.128 247.231,274.382 246.605,274.791 245.840 C 275.201 245.075,275.694 243.191,275.887 241.653 C 276.081 240.114,276.509 237.809,276.839 236.529 C 277.568 233.700,278.743 223.706,279.181 216.612 C 279.582 210.118,281.309 199.495,282.250 197.737 C 282.638 197.011,282.907 196.270,282.847 196.091 C 282.656 195.521,285.429 187.419,286.972 184.039 C 287.790 182.248,289.127 179.316,289.943 177.524 C 290.760 175.733,292.271 173.021,293.302 171.498 C 294.333 169.976,294.991 168.730,294.765 168.730 C 294.538 168.730,295.282 167.557,296.417 166.124 C 297.552 164.691,298.300 163.518,298.079 163.518 C 297.858 163.518,298.860 161.952,300.305 160.039 C 301.749 158.125,302.932 156.338,302.932 156.067 C 302.932 155.797,303.591 154.651,304.396 153.521 C 305.202 152.391,305.886 151.319,305.915 151.140 C 305.945 150.961,306.633 149.349,307.444 147.557 C 308.255 145.765,308.996 143.713,309.091 142.997 C 309.250 141.792,309.638 140.258,311.567 133.225 C 311.960 131.792,312.586 130.033,312.958 129.316 C 313.330 128.599,313.645 127.846,313.658 127.642 C 313.742 126.285,317.292 120.670,319.954 117.684 C 321.699 115.726,323.127 113.915,323.127 113.660 C 323.127 113.405,327.378 108.821,332.573 103.473 C 337.769 98.125,342.020 93.487,342.020 93.166 C 342.020 92.845,342.673 91.476,343.471 90.123 C 347.705 82.946,348.049 75.028,344.555 65.147 C 344.238 64.251,343.820 62.199,343.627 60.586 C 343.013 55.470,340.982 48.536,339.605 46.854 C 339.141 46.289,338.762 45.543,338.762 45.198 C 338.762 42.768,330.131 37.163,324.430 35.891 C 319.598 34.813,315.065 33.834,313.681 33.571 C 312.964 33.434,310.619 32.690,308.469 31.915 C 304.320 30.422,297.116 29.887,292.912 30.760 M239.717 77.210 C 240.625 77.692,245.598 82.340,250.767 87.538 L 260.166 96.990 252.564 104.762 L 244.963 112.534 245.862 115.524 C 247.244 120.116,246.278 121.067,241.753 119.564 C 237.881 118.278,238.916 117.797,231.949 124.117 C 228.433 127.305,228.389 127.324,228.013 125.723 C 227.370 122.989,224.454 122.054,220.886 123.439 C 219.252 124.073,216.743 124.792,215.309 125.036 C 211.324 125.715,205.349 128.810,202.020 131.920 C 200.371 133.460,196.824 135.881,194.137 137.301 C 191.450 138.721,188.078 140.553,186.645 141.372 C 185.212 142.191,182.280 143.807,180.130 144.962 C 175.057 147.688,170.994 149.936,167.752 151.808 C 166.319 152.636,163.974 153.956,162.541 154.740 C 156.204 158.208,154.666 159.128,153.785 159.977 C 151.222 162.445,155.538 161.073,161.889 157.399 C 163.322 156.570,165.668 155.213,167.101 154.384 C 168.534 153.554,170.879 152.233,172.313 151.448 C 173.746 150.663,176.384 149.211,178.176 148.221 C 185.727 144.050,188.152 142.715,191.857 140.688 C 194.007 139.512,196.645 138.057,197.720 137.456 C 198.795 136.854,200.841 136.143,202.268 135.876 C 206.550 135.073,212.833 131.761,216.673 128.284 C 222.790 122.744,228.380 124.567,225.045 131.015 C 222.318 136.289,224.133 140.235,233.465 149.321 C 239.964 155.649,243.819 156.907,249.014 154.397 C 255.753 151.141,256.122 155.131,249.707 161.903 C 247.450 164.286,245.603 166.509,245.603 166.844 C 245.603 167.179,244.937 168.546,244.123 169.883 C 243.309 171.219,242.547 173.192,242.431 174.267 C 242.314 175.342,241.985 176.515,241.700 176.873 C 241.224 177.471,239.266 180.832,237.520 184.048 C 237.128 184.770,236.148 186.281,235.342 187.406 C 234.536 188.531,233.876 189.616,233.876 189.817 C 233.876 190.018,232.264 192.682,230.293 195.737 C 228.322 198.792,226.710 201.474,226.710 201.698 C 226.710 201.922,225.684 203.503,224.430 205.212 C 223.176 206.920,222.150 208.544,222.150 208.821 C 222.150 209.097,221.417 210.284,220.521 211.459 C 219.625 212.633,218.893 213.806,218.893 214.064 C 218.893 214.323,218.160 215.496,217.264 216.670 C 216.368 217.845,215.635 219.006,215.635 219.250 C 215.635 219.495,214.609 221.093,213.355 222.801 C 212.101 224.510,211.075 226.134,211.075 226.410 C 211.075 226.687,210.342 227.874,209.446 229.048 C 208.550 230.223,207.818 231.342,207.818 231.536 C 207.818 231.731,205.912 234.700,203.583 238.135 C 201.254 241.570,199.349 244.540,199.349 244.735 C 199.349 244.930,198.469 246.200,197.394 247.557 C 196.319 248.914,195.440 250.225,195.440 250.469 C 195.440 251.352,189.682 258.369,186.712 261.107 C 177.429 269.663,163.304 268.479,159.262 258.807 C 157.834 255.388,157.988 255.093,162.052 253.436 C 164.112 252.596,166.576 251.369,167.527 250.710 C 168.478 250.051,169.472 249.511,169.735 249.511 C 172.253 249.511,199.582 222.166,201.818 217.409 C 209.702 200.635,196.394 191.389,182.629 204.077 C 179.721 206.758,179.228 206.825,180.588 204.355 C 181.018 203.572,181.443 202.638,181.532 202.280 C 181.621 201.922,182.135 200.456,182.675 199.023 C 186.072 190.002,181.806 183.982,172.958 185.309 L 170.141 185.731 170.137 182.931 C 170.119 170.384,155.270 169.858,143.037 181.970 C 140.441 184.541,138.137 187.357,137.918 188.227 C 137.618 189.423,138.684 188.653,142.287 185.074 C 147.205 180.189,147.913 179.669,153.420 176.897 C 160.882 173.140,168.187 175.925,168.187 182.527 L 168.187 185.548 158.010 195.494 C 146.988 206.266,143.330 208.703,133.719 211.675 C 129.267 213.052,127.752 213.963,128.563 214.773 C 129.008 215.219,135.110 213.343,140.879 210.989 C 145.968 208.912,146.029 208.960,143.001 212.656 C 138.546 218.092,134.701 226.687,133.873 233.062 C 133.597 235.181,133.110 236.482,132.592 236.482 C 131.607 236.482,127.837 234.843,126.253 233.727 C 125.643 233.297,124.926 233.163,124.660 233.429 C 123.806 234.283,126.634 236.438,130.304 237.730 C 133.265 238.773,133.933 239.297,134.252 240.828 C 135.875 248.629,144.533 255.635,152.331 255.459 L 156.094 255.374 157.263 258.623 C 158.749 262.757,164.193 267.969,167.481 268.406 C 176.667 269.628,183.639 267.385,189.970 261.171 C 191.545 259.625,192.834 258.105,192.834 257.792 C 192.834 257.479,193.895 255.927,195.192 254.344 C 196.490 252.761,197.352 251.466,197.109 251.466 C 196.866 251.466,198.003 249.729,199.636 247.606 C 201.270 245.484,202.606 243.559,202.606 243.328 C 202.606 243.098,203.339 241.949,204.235 240.775 C 205.130 239.600,205.863 238.416,205.863 238.143 C 205.863 237.870,206.743 236.536,207.818 235.179 C 208.893 233.822,209.772 232.496,209.772 232.232 C 209.772 231.968,210.798 230.324,212.052 228.578 C 213.306 226.832,214.332 225.213,214.332 224.979 C 214.332 224.744,215.065 223.592,215.961 222.418 C 216.857 221.243,217.590 220.082,217.590 219.838 C 217.590 219.593,218.616 217.995,219.870 216.287 C 221.124 214.578,222.150 212.954,222.150 212.678 C 222.150 212.401,222.883 211.214,223.779 210.040 C 224.674 208.865,225.407 207.718,225.407 207.490 C 225.407 207.262,226.360 205.703,227.524 204.026 C 228.688 202.349,229.961 200.391,230.353 199.674 C 232.745 195.303,234.117 193.037,234.920 192.131 C 235.421 191.565,235.831 190.916,235.831 190.688 C 235.831 190.460,237.443 187.774,239.414 184.719 C 241.384 181.664,242.997 178.927,242.997 178.635 C 242.997 178.344,244.046 177.095,245.329 175.861 C 249.404 171.938,251.874 167.934,254.309 161.302 C 257.131 153.617,257.142 153.462,255.002 151.480 L 253.327 149.927 257.021 145.909 C 260.344 142.294,260.671 141.684,260.278 139.838 C 258.859 133.166,259.362 132.616,265.704 133.920 C 267.811 134.354,268.156 134.105,275.364 126.957 L 282.839 119.544 290.652 127.687 C 303.894 141.489,303.842 140.805,292.902 157.264 C 278.473 178.972,273.055 193.822,271.333 216.387 C 268.641 251.653,261.422 267.771,240.756 284.658 C 179.123 335.020,85.643 299.827,70.599 220.598 C 70.063 217.774,69.238 214.842,68.765 214.083 C 66.547 210.518,67.335 187.100,69.768 184.294 C 70.954 182.926,72.122 176.517,71.398 175.346 C 69.509 172.290,86.717 137.459,90.116 137.459 C 90.605 137.459,93.469 134.736,96.480 131.408 C 112.248 113.979,128.413 107.884,166.775 104.904 C 184.171 103.553,201.514 96.545,221.824 82.660 C 232.327 75.479,234.952 74.680,239.717 77.210 M268.163 102.245 L 272.638 106.445 272.964 110.706 L 273.290 114.967 275.740 115.363 C 279.996 116.050,279.844 116.528,273.239 123.234 C 265.772 130.814,260.848 131.753,253.834 126.932 C 251.832 125.556,249.765 124.430,249.240 124.430 C 248.715 124.430,248.104 124.137,247.883 123.779 C 247.661 123.420,246.911 123.127,246.216 123.127 C 244.577 123.127,244.620 122.866,246.580 120.906 C 248.366 119.120,248.535 118.208,247.559 115.641 C 246.627 113.190,247.788 111.380,254.514 104.803 C 263.084 96.420,262.144 96.596,268.163 102.245 M242.034 122.114 C 243.563 122.753,244.168 123.364,243.918 124.016 C 243.667 124.668,244.693 125.710,247.104 127.252 C 254.046 131.693,254.015 133.034,246.824 139.527 C 240.893 144.882,240.169 147.729,244.300 149.441 C 244.837 149.663,244.010 149.722,242.462 149.571 C 240.775 149.407,238.590 148.557,237.012 147.450 C 235.564 146.434,233.313 144.956,232.010 144.165 C 224.922 139.864,223.874 133.525,229.412 128.454 C 237.664 120.898,238.327 120.565,242.034 122.114 M251.698 127.161 C 253.183 128.306,254.501 129.313,254.628 129.401 C 254.755 129.489,254.745 129.902,254.606 130.319 C 254.454 130.774,253.288 130.204,251.688 128.894 C 250.221 127.693,248.472 126.361,247.801 125.934 C 246.618 125.182,246.617 125.157,247.789 125.120 C 248.454 125.099,250.213 126.017,251.698 127.161 M180.523 188.660 C 183.442 191.302,179.943 204.779,174.859 210.475 C 174.354 211.040,173.941 211.785,173.941 212.128 C 173.941 213.227,163.734 224.508,159.951 227.590 C 154.168 232.301,145.795 235.995,138.925 236.867 L 135.505 237.301 135.505 234.634 C 135.505 229.464,139.752 219.647,144.598 213.617 C 145.688 212.261,146.580 210.902,146.580 210.597 C 146.580 209.864,152.001 204.560,152.751 204.560 C 153.073 204.560,154.727 203.388,156.427 201.954 C 158.126 200.521,159.748 199.349,160.029 199.349 C 160.740 199.349,166.775 193.341,166.775 192.633 C 166.775 188.191,176.803 185.293,180.523 188.660 M108.295 192.671 C 106.735 194.923,105.791 196.866,107.108 195.114 C 109.685 191.684,110.224 191.143,109.833 192.379 C 109.615 193.065,109.729 193.388,110.105 193.155 C 110.922 192.650,110.950 190.879,110.142 190.879 C 109.808 190.879,108.977 191.686,108.295 192.671 M162.231 194.446 C 160.293 196.408,158.545 197.843,158.344 197.634 C 157.999 197.275,164.690 190.879,165.411 190.879 C 165.600 190.879,164.168 192.485,162.231 194.446 M107.851 195.805 C 107.250 196.723,106.850 197.721,106.962 198.023 C 107.074 198.325,107.673 197.574,108.292 196.354 C 109.623 193.734,109.395 193.450,107.851 195.805 M129.381 198.305 C 129.573 198.807,129.417 199.410,129.035 199.647 C 128.652 199.883,128.339 199.714,128.339 199.271 C 128.339 198.341,124.475 203.258,124.448 204.223 C 124.438 204.575,125.189 203.746,126.117 202.381 C 127.044 201.016,127.967 200.062,128.166 200.262 C 128.366 200.462,127.754 201.797,126.805 203.230 C 125.857 204.663,125.088 206.061,125.095 206.338 C 125.116 207.090,130.293 198.855,130.293 198.070 C 130.293 197.698,130.009 197.394,129.662 197.394 C 129.315 197.394,129.188 197.804,129.381 198.305 M199.564 201.984 C 204.998 206.259,202.350 215.651,192.910 225.583 C 189.767 228.890,187.014 232.092,186.792 232.698 C 186.571 233.304,185.567 234.322,184.563 234.961 C 183.558 235.599,180.254 238.401,177.220 241.188 C 174.186 243.974,171.428 246.254,171.092 246.254 C 170.756 246.254,169.574 246.934,168.465 247.765 C 166.080 249.552,159.700 252.769,158.540 252.769 C 155.426 252.769,162.590 232.647,168.430 224.990 C 169.311 223.834,170.033 222.679,170.033 222.423 C 170.033 222.168,171.059 220.706,172.313 219.176 C 173.567 217.645,174.593 216.134,174.593 215.818 C 174.593 214.486,185.802 203.336,188.413 202.070 C 192.183 200.242,197.300 200.203,199.564 201.984 M163.744 229.153 C 162.807 230.855,161.841 232.541,161.597 232.899 C 159.368 236.176,156.360 246.132,156.355 250.253 C 156.352 253.149,156.263 253.291,154.235 253.657 C 148.289 254.730,140.444 250.179,137.522 243.962 C 135.523 239.708,135.683 239.227,139.251 238.783 C 146.117 237.930,157.239 233.015,160.528 229.380 C 161.209 228.628,162.124 228.013,162.562 228.013 C 163.000 228.013,163.723 227.573,164.169 227.036 C 165.623 225.285,165.479 226.000,163.744 229.153 " stroke="none" fill="#bcc8ce" fill-rule="evenodd" id="svg_2">
    </path>
</svg>
