<svg xmlns="http://www.w3.org/2000/svg" xmlns:xlink="http://www.w3.org/1999/xlink" viewBox="0 0 175 175">
<path fill="#bcc8ce" d="M154.906,161.437c-13.814,7.929-30.623,6.055-42.26-3.437c-3.164-2.434-5.836-5.326-7.729-8.623
	c-0.157-0.237-0.287-0.492-0.435-0.736c-0.145-0.229-0.295-0.471-0.409-0.695c-4.922-8.431-6.088-17.977-4.047-26.779
	c0.942-8.156,2.197-15.758-3.049-24.761c-0.084-0.143-0.213-0.323-0.213-0.315c-0.072-0.126-0.131-0.271-0.215-0.403
	c-1.75-3.001-3.735-5.324-5.872-7.19c2.467-1.468,5.153-2.608,8.008-3.834l1.008-0.434c9.536-2.949,17.564-9.18,22.751-17.623
	c0.022,4.278,0.783,8.427,3.125,12.447c0.064,0.137,0.168,0.27,0.24,0.394c-0.013,0,0.094,0.191,0.166,0.334
	c4.75,8.169,13.225,10.886,21.846,14.614c7.727,2.495,14.644,7.453,19.443,14.607c0.053,0.092,0.131,0.174,0.189,0.278
	c0.363,0.562,0.717,1.121,1.062,1.724C178.805,128.653,172.699,151.236,154.906,161.437z M148.305,107.649
	c-11.97-6.854-27.285-2.786-34.205,9.101c-6.901,11.89-2.777,27.065,9.187,33.928c11.974,6.861,27.289,2.785,34.202-9.096
	C164.396,129.696,160.282,114.515,148.305,107.649z M120.596,62.481c-0.146,0.248-0.307,0.484-0.453,0.726
	c-0.119,0.243-0.24,0.48-0.388,0.712c-4.889,8.448-12.639,14.211-21.345,16.857c-7.615,3.28-14.859,6.006-20.095,15.02
	c-0.079,0.128-0.174,0.327-0.174,0.327c-0.076,0.133-0.166,0.254-0.244,0.384c-1.816,3.107-2.851,6.064-3.404,8.932
	c-1.972-1.29-3.953-2.767-6.018-4.307c-0.854-0.637-1.703-1.263-2.563-1.896c-6.789-6.004-15.519-9.627-24.609-10.201L41.23,89.03
	c-0.105-0.011-0.216-0.021-0.306-0.025c-0.56-0.02-1.116-0.049-1.645-0.06c3.836-2.186,7.187-4.917,9.589-9.055
	c0.074-0.122,0.146-0.266,0.22-0.397c0.004,0.002,0.119-0.188,0.199-0.311c4.762-8.183,2.883-16.8,1.837-26.087
	c-1.687-7.875-0.805-16.313,3.027-23.997c0.057-0.103,0.095-0.2,0.148-0.306c0.302-0.601,0.628-1.19,0.971-1.781
	C65.549,9.333,88.311,3.279,106.109,13.474c13.815,7.916,20.582,23.297,18.127,38.048C123.721,55.457,122.499,59.199,120.596,62.481
	z M87.5,21.199c-13.832,0.004-25.033,11.126-25.031,24.847c0.005,13.723,11.217,24.838,25.044,24.832
	c13.826,0,25.029-11.121,25.022-24.849C112.539,32.319,101.315,21.197,87.5,21.199z M41.091,92.7
	c8.625,0.535,16.445,3.987,22.49,9.386c7.582,5.545,14.21,11.449,23.734,11.443c0.15,0.006,0.302-0.005,0.454-0.008
	c0,0,0.224,0.014,0.377,0.014c3.297-0.006,6.25-0.717,9.016-1.885c-0.048,2.535-0.338,5.1-0.663,7.805l-0.124,1.1
	c-2.268,9.938-0.701,20.23,4.389,29.078c-3.543-1.713-7.561-2.855-12.61-2.855c-0.154,0-0.378,0.014-0.378,0.014
	c-0.141,0-0.296-0.014-0.451-0.014c-10.481,0-16.567,4.872-23.235,9.77c-6.646,6.158-15.565,9.93-25.375,9.93
	c-0.275,0-0.546-0.014-0.826-0.014c-0.282,0-0.563,0.014-0.858,0.014c-3.818,0.004-7.68-0.836-11.383-2.346
	c-14.109-5.237-24.162-18.728-24.164-34.58C1.478,109.166,18.13,92.627,38.692,92.622c0.684,0,1.371,0.023,2.042,0.066
	C40.866,92.687,40.978,92.695,41.091,92.7z M26.265,107.873c-11.977,6.86-16.074,22.07-9.156,33.924
	c6.916,11.89,22.236,15.951,34.202,9.084c11.983-6.854,16.076-22.053,9.158-33.932C53.552,105.092,38.229,101.002,26.265,107.873z"
	/>
</svg>
