<?xml version="1.0" encoding="utf-8"?>
<!DOCTYPE svg PUBLIC "-//W3C//DTD SVG 1.1//EN" "http://www.w3.org/Graphics/SVG/1.1/DTD/svg11.dtd">
<svg version="1.1" id="Layer_1" xmlns="http://www.w3.org/2000/svg" x="0px" y="0px"
	 viewBox="600 251 80 218">
<g>
	<path fill="#1D1D1B" d="M636.7,282.6l0.2,0.8l0.3,1.2l0.6,1.5l1,1.4l1.1,2.5l1.3,4.3l0.7,1.8l0.1,0.5l0.2,0.5l0.3,2l1.3,8l0.9,5.5
		l0.2,1.8c0.1,1.1-0.6,4.3-2.2,9.7l-2.4,8c-0.3,1.7-1.8,4.6-4.7,8.6c-2.9,4-4.6,6.9-5.1,8.5l8.5,2.3l8.4,1.3l2.6-0.1l2.2-0.4l1,0.2
		l0.8,0.1l1.1-0.2l0.1,0.5l-7.8,0.4l0.2,2.1h-0.7l-1,0.2h-0.2l-9.5-0.8L633,354l1.6,0.7h-0.4c2.3,0.9,5.2,1.4,8.6,1.6l2.3,0.3
		l-8.5,5.6l10.9-6.1h0.8l5.8-0.4l-1,9.3l3.8-8.9c1.1-1.2,1.8-1.5,2.2-0.7l-2.3,10.3l3.3-2.9l-1.2,32.3c-0.9,8.7-2.1,14.8-3.4,18.3
		l1.5-0.9c2.4-2.7,2.6-2,0.7,2l-3.9,7l1.8,2.2l-1.5,2.8c-1.2,1.6-2.8,3.1-4.9,4.5l6.6-3.2l0.1,0.3l-3,3.4l1.3,0.8l-2.9,1.4l3.4-0.1
		l0.6,4.2c3.1-0.4,3,0.9-0.2,3.9l3.2-1.9l0.9,1.3l4.3,3.3l2.5,3.2c0.7,1.4,1.1,2.9,1.3,4.4l-0.3,0.9l-0.5,0.5l-0.7,0.3l-6.4-0.4
		c-2.5-0.7-4-1.8-4.5-3.4l-0.1-0.7l-3.1-4.7l-1.8,0.4v0.2c-1.2-0.1-2.3-0.9-3.2-2.5c-0.8-2.2-0.9-3.5-0.2-3.7l-1.4-2.7l0.6-3.4
		l-0.8-5.1l1.2-3.8l-1.2-9.1l1.1-8.4l-0.3-13.7l-1.3-10l0.7-4.2l4.9-10.2l-2.4-3.4l-12.1,4.4l11.6-0.3l-9.4,5.4l-4.3,34.8l-2.6,3.9
		l0.7,3.9c0,5.4-0.8,8.2-2.5,8.5l1.1,7.1l-3.6,4.7c2.3,0,4.4,0.9,6,2.6l-4.4,1.8l1.9,1.9l-2.3,7l3.5,0.6l0.2-0.1l0.4-0.4l0.8,0.7
		l-0.1,0.2l-0.1,0.2c-0.4,1.5-0.7,3.1-0.8,5l0.4,3.8l-4.6,7.2c-2.9,1.2-4.6,1.1-5.1-0.2c-1.4-2-2.1-4.6-2.2-8l2.9-6.5l0.2-2.6h-0.2
		l-1.2-1.3l-1.4-8.9l0.4-2.7l-0.7-2.7l0.5-10.6l1.1-2l-0.7-3.3l1.5-7.8l-0.4-3.6l1.3-3.1l-0.1-33.8l-1.9,0.3l-1.2,2.4
		c-2.1-1.7-3.5-3.7-4.2-5.9l-0.7-2.5l-0.4-1.9l3.5-7.7l-3.3-5.2l-2.6-5.9l-1.6-5.4l-2.1-4.6l1.3-4.2l-0.6-3.3l1.5-6.6l-0.8-2.8
		l2.9-7.9l-0.5-2.8l1.3-2.3l1.6-9.9c0.3-1.3,1.3-2.3,2.9-2.8l9.3-2.4l8.5-5.5l0.4-0.3L636.7,282.6z M655.2,354.8l-0.2-1.9v-0.5
		l4.3-2.1l0.5-0.2v2.8L655.2,354.8z M623.2,370.2L623.2,370.2h-0.7C622.1,370.3,622.4,370.3,623.2,370.2z M622.1,467.3L622.1,467.3
		L622.1,467.3z M645.6,355.5L645.6,355.5L645.6,355.5z M647.2,352.7L647.2,352.7L647.2,352.7z M641.9,296L641.9,296L641.9,296z
		 M637.9,286L637.9,286L637.9,286z M638.3,281.4l0.1-7.1l-1.3-1l-0.7-2.3l0.1-1.4l-0.5-2.1l0.5-1l0.3-0.3l-0.2-0.2
		c-0.5-1-0.7-2.5-0.5-4.6c0.1-2.2,1-4.2,2.5-6c1.1-2.1,2.4-3.3,3.8-3.8l3.8-0.2l0.3,0.1l1,0.2h0.3h2.3c1.5-0.1,3.2,1.3,4.9,4.1
		l2.3,2.8c0.8,0.8,1.3,1.7,1.3,2.6l-0.7,2.6l-0.2,0.6l0.2,0.7l-0.2,1.5l-0.1,0.8v0.2l0.5,1.4l0.3-0.1l0.3,2.2l-1.3,2l-0.1,2.3
		l-1.2,1.2l-0.2-0.1l-1.1,3.9l-2.7,3l-0.2,1.5l-0.3,0.1l-0.1,0.3l-0.2,1.4l-2,2.3l1.9,2.1l-0.3,0.2l-0.8,3.1l1.2,1.1l1.1,0.9
		l3.1,12.1l-1,3.5l-1.4,3.8l-0.3,0.6l-1.8-4.1l-4.3-7.5l0.1-0.8l0.3-8.9l-2.2-2.6l2.9-3.7L638.3,281.4z M636.4,266.4L636.4,266.4
		L636.4,266.4L636.4,266.4z M657.6,267.4L657.6,267.4L657.6,267.4z M651.7,284.9L651.7,284.9L651.7,284.9z M645,292.2L645,292.2
		L645,292.2z M651.7,285.3l4.3,3.6l2.2,1.6l1.8,0.9l3.4,2.1l2.9,2.3l0.3,1.1l-0.2,1.6v1.3l0.5,3.3l0.6,4.1l0.2,3.8l-0.2,5.8
		l-0.3,9.1l-2.4,15.7l2.1,6.5l-0.4,0.8l-0.3,0.7v0.2l1.1,4.4l1.1,3.8l1,3.1l1.3,4.7l0.4,2.3c0,0.5-0.4,0.8-1.1,0.8h-1.6l-3.3-0.8
		l0.7-13.5l-2.2-3.5l-0.1-0.5l-2,1.3l-0.1-2.6l1.7-1.7l-0.3-2.3l-0.1-2.7l-0.2-0.8c-0.1-1.1-0.5-2-1.2-2.7c-0.7-0.7-0.9-1.6-0.6-2.7
		c0.3-0.9,0.4-3.1,0.3-6.5l-0.1-5.5l-0.7-8l-0.4-4.8l-0.3-2.8l-0.5-4.5l-0.1-6.1l-0.2-1.6l-0.3-2.9l-1.2-1.2l-1.2-1l-0.5-0.9
		l-0.5-0.8l-1.3-1.3l-0.2-0.2l-1-1.3L651.7,285.3z M662.9,347.4L662.9,347.4v1.6l0.1-0.9L662.9,347.4z M667.1,354L667.1,354
		L667.1,354z M655.4,290.5L655.4,290.5L655.4,290.5z M662.3,341.7L662.3,341.7L662.3,341.7z M624.4,331.7l-1.5-2.3l0.2,0.1
		c0.6,0.3,1.2-2.2,2-7.5l0.1-0.5l0.4-2.8l0.5-4.9l0.7-6.4l-1,6.4l-0.8,4.8l-1.6-0.1l0.5,1.8l0.5,1.2l-0.2,0.4
		c-0.8,4-1.4,6.3-1.9,7.1l-0.3,0.3l-2.9,0.4l3.1,1.3l-5.9-0.2l-0.6-0.5l0.8-0.7l0.5-0.3v-0.2h-0.2l-0.5-0.1l-1.2,0.4l-0.2,0.1
		l-0.4,1l0.3,0.4l0.2,0.3l0.3,0.4l7,0.4l-1.9,3.2l2.4,1.7l0.8,3.4l1.9,1.9l-3.4,3.3l2.8-0.4l-1.2,1.9l-1.1,1.7c-1.3,1.9-2,3-2,3.3
		l0.2,0.5l0.1,0.4l0.8-0.1l1.9-3l1.3-1.9l0.3-0.3l0.2-0.1l0.3-0.1l0.1,0.2l5.9,4.6l-4.9-6.6l-0.6-4.6l-1.8-1.9l-0.2-3.5l-1.4-1.5
		L624.4,331.7z M614.8,329.6L614.8,329.6L614.8,329.6z M615,329.5L615,329.5L615,329.5z M625,318.6L625,318.6L625,318.6z
		 M625.6,318.8L625.6,318.8L625.6,318.8z M631.3,352.4l-8,8.7l1.7,3.4l0.6-0.7C628.1,361,630,357.2,631.3,352.4z M633.7,367.9
		l12.1-5.7c2.1-1.8,3-3.1,2.5-3.9L633.7,367.9z"/>
	<path fill="#575756" d="M631.6,450.5l-0.4,0.4L631,451l-3.5-0.6l2.3-7l-1.9-1.9l4.4-1.8c-1.7-1.7-3.7-2.6-6-2.6l3.6-4.7l-1.1-7.1
		c1.7-0.3,2.5-3.1,2.5-8.5l-0.7-3.9l2.6-3.9l4.3-34.8l9.4-5.4l-11.6,0.3l12.1-4.4l2.4,3.4l-4.9,10.2l-0.7,4.2l-2.8,14.9l-0.5,13
		c-1.6,3.7-2.5,6.3-2.7,7.7l-0.4,2.9c0.7,3.5,0.4,6.5-1,9c-0.3,4.2-0.2,7.6,0.4,10.3c-1.5,4.2-3,7.3-4.6,9.3l-0.3,0.4L631.6,450.5z
		 M636.9,440.4L636.9,440.4L636.9,440.4z M636.5,430.1L636.5,430.1L636.5,430.1z M658,439.6l-3.2,1.9c3.2-3.1,3.2-4.4,0.2-3.9
		l-0.6-4.2l-3.4,0.1l2.9-1.4l-1.3-0.8l3-3.4l-0.1-0.3l-6.6,3.2c2.1-1.5,3.7-3,4.9-4.5l1.5-2.8l-1.8-2.2l3.9-7c2-4,1.7-4.7-0.7-2
		l-1.5,0.9c1.3-3.6,2.5-9.7,3.4-18.3l1.2-32.3l-3.3,2.9l2.3-10.3c-0.3-0.8-1.1-0.6-2.2,0.7l-3.8,8.9l1-9.3l1.6-0.6l-0.3-0.2l4.6-1.9
		V350l-0.5,0.2l-4.3,2.1l-1.2,0.2l-0.8-0.1l-1-0.2l-2.2,0.4h-2.6l-8.4-1.2l-8.5-2.3c0.5-1.7,2.2-4.5,5.1-8.5c2.9-4,4.4-6.9,4.7-8.6
		l2.4-8c1.6-5.4,2.3-8.7,2.2-9.7l-0.2-1.8l-0.9-5.5l-1.3-8l3.1,3.8l0.5,0.8l0.7,0.9l4.3,7.5l1.8,4.1l0.3-0.6l1.4-3.8l1-3.5
		c0.6-3,0.9-6.4,0.8-10.1l-0.1-1.6l-0.1-0.9l0.2-1.8l-0.5-2.4l1.2,1l1.2,1.2l0.3,2.9l0.2,1.6l0.1,6.1l0.5,4.5l0.3,2.8l0.4,4.8l0.7,8
		l0.1,5.5c0.1,3.4-0.1,5.6-0.3,6.5c-0.3,1.1-0.1,2,0.6,2.7c0.7,0.7,1.1,1.6,1.2,2.6l0.2,0.8l0.1,2.7l0.3,2.2l-1.7,1.8l0.1,2.6l2-1.3
		l0.1,0.5l2.2,3.5l-0.7,13.5l-1.8,33.6l-3.1,12.5l-0.7,6.4l1,2.8l-1.6,2l1.2,1.8l-3,4.5l1.2,3.1l0.3,4.8L658,439.6z M647.2,352.6
		L647.2,352.6L647.2,352.6z M655,352.4L655,352.4L655,352.4z M662.3,341.6L662.3,341.6L662.3,341.6z M662.9,347.3L662.9,347.3
		L662.9,347.3z M647.4,356l-10.9,6.1l8.5-5.6l-2.3-0.3c-3.5-0.2-6.3-0.7-8.6-1.6h0.4L633,354l3.1,0.8l9.4,0.8h0.3l1-0.2h0.7V356z
		 M645.5,355.5L645.5,355.5L645.5,355.5z M624.4,331.7l-1.7,2.3l1.4,1.5l0.2,3.5l1.8,1.9l0.6,4.6l4.9,6.6l-5.9-4.6l-0.1-0.2
		l-0.3,0.1l-0.2,0.1l-0.3,0.3l-1.3,1.9l-1.9,3l-0.8,0.1l-0.1-0.4l-0.2-0.5c0-0.3,0.7-1.4,2-3.3l1.1-1.7l1.2-1.9l-2.8,0.4l3.4-3.3
		l-1.9-1.9l-0.8-3.4l-2.4-1.7l1.9-3.2l-7-0.4l-0.3-0.4l-0.2-0.3l-0.3-0.4l0.4-0.9l0.2-0.2l1.2-0.4l0.5,0.1h0.2v0.2l-0.5,0.3
		l-0.8,0.7l0.6,0.5l5.9,0.2l-3.1-1.3l2.9-0.4l0.3-0.3c0.5-0.8,1.1-3.2,1.9-7.1l0.2-0.4l-0.5-1.2l-0.5-1.8l1.5,0.1l0.9-4.8l1-6.4
		l-0.7,6.4l-0.5,4.9l-0.4,2.9l-0.1,0.5c-0.8,5.2-1.5,7.7-2,7.5l-0.2-0.2L624.4,331.7z M624.9,318.6L624.9,318.6L624.9,318.6z
		 M625.6,318.7L625.6,318.7L625.6,318.7z M622.9,329.3L622.9,329.3L622.9,329.3z M614.8,329.7L614.8,329.7L614.8,329.7z
		 M623.4,361.1l8-8.7c-1.3,4.9-3.2,8.7-5.7,11.5l-0.6,0.7L623.4,361.1z M645.7,362.2l-12.1,5.7l14.6-9.6
		C648.7,359.1,647.8,360.4,645.7,362.2z"/>
	<path fill="#9C9B9B" d="M653.9,355.5l-5.8,0.4h-0.8v-0.6l-0.2-2.1l7.8-0.4l0.2,1.9l0.3,0.2L653.9,355.5z M642.1,297l-0.2-0.5
		l-0.1-0.4l0.2-0.3l2.8-3.6l2.2,2.6l-0.3,8.9l-0.8-0.1l-0.5-0.8l0.1-0.3l0.3-5.9L642.1,297z M641.9,296.1L641.9,296.1L641.9,296.1z
		 M651.4,295.3l-1.2-1.1l0.8-3.1l3.9,5.6l0.5-3.9l-1.4-3.7l-0.8-0.6l-0.8-1.6l1,1.3l0.2,0.2l0.7,0.7l1.2,1.3l0.5,1l0.5,2.4l-0.2,1.8
		l0.1,0.9l-1.3,2.2l-1.2-1.3l-0.9-1.3L651.4,295.3z M655.4,290.4L655.4,290.4L655.4,290.4z"/>
	<path fill="#FFFFFF" d="M642.5,299l-0.3-2l3.8-0.5l-0.3,5.9l-0.1,0.3L642.5,299z M641.9,296l-0.7-1.8l-1.3-4.3l-1.1-2.5l-0.9-1.3
		l-0.7-1.6l-0.3-1.2l0.9-2.3l0.4,0.3l9.6,7.1l-2.8,3.7l-2.9,3.6L641.9,296z M637.9,286.1L637.9,286.1L637.9,286.1z M645.1,292.2
		L645.1,292.2L645.1,292.2z M651.6,285.1l0.2,0.2l0.7,1.7l0.8,1.6l0.8,0.6l1.4,3.7l-0.5,3.9l-3.9-5.6l0.3-0.2l-1.9-2.1l2-2.3
		L651.6,285.1z M646.8,303.7l-0.1,0.8l-0.7-0.9L646.8,303.7z M655.6,308.3l-3.1-12.1l-1.1-0.9l1.5,0.9l0.9,1.3l1.2,1.3l1.3-2.2
		l0.1,1.6C656.5,301.9,656.2,305.3,655.6,308.3z"/>
</g>
</svg>
